<!DOCTYPE svg PUBLIC "-//W3C//DTD SVG 1.1//EN" "http://www.w3.org/Graphics/SVG/1.1/DTD/svg11.dtd">
<!-- Uploaded to: SVG Repo, www.svgrepo.com, Transformed by: SVG Repo Mixer Tools -->
<svg fill="#e32400" version="1.1" id="Capa_1" xmlns="http://www.w3.org/2000/svg" xmlns:xlink="http://www.w3.org/1999/xlink" width="96px" height="96px" viewBox="-16.99 -16.99 79.90 79.90" xml:space="preserve" stroke="#e32400">
<g id="SVGRepo_bgCarrier" stroke-width="0" transform="translate(0.9183400000000006,0.9183400000000006), scale(0.96)">
<rect x="-16.99" y="-16.99" width="79.90" height="79.90" rx="39.95" fill="#7ed0ec" strokewidth="0"/>
</g>
<g id="SVGRepo_tracerCarrier" stroke-linecap="round" stroke-linejoin="round" stroke="#CCCCCC" stroke-width="5.51004"> <g> <g> <path d="M33.523,28.334c-0.717,1.155-1.498,2.358-2.344,3.608c7.121,1.065,10.766,3.347,10.766,4.481 c0,1.511-6.459,5.054-18.986,5.054c-12.528,0-18.988-3.543-18.988-5.054c0-1.135,3.645-3.416,10.768-4.481 c-0.847-1.25-1.628-2.453-2.345-3.608C5.365,29.661,0,32.385,0,36.424c0,5.925,11.551,9.024,22.959,9.024s22.958-3.1,22.958-9.024 C45.917,32.385,40.553,29.661,33.523,28.334z"/> <path d="M22.96,36.047c1.032,0,2.003-0.491,2.613-1.325c3.905-5.33,10.813-15.508,10.813-20.827 c0-7.416-6.012-13.427-13.427-13.427c-7.417,0-13.427,6.011-13.427,13.427c0,5.318,6.906,15.497,10.812,20.827 C20.957,35.556,21.928,36.047,22.96,36.047z M17.374,13.63c0-3.084,2.5-5.584,5.585-5.584c3.084,0,5.584,2.5,5.584,5.584 s-2.5,5.584-5.584,5.584C19.874,19.215,17.374,16.715,17.374,13.63z"/> </g> </g> </g>
<g id="SVGRepo_iconCarrier"> <g> <g> <path d="M33.523,28.334c-0.717,1.155-1.498,2.358-2.344,3.608c7.121,1.065,10.766,3.347,10.766,4.481 c0,1.511-6.459,5.054-18.986,5.054c-12.528,0-18.988-3.543-18.988-5.054c0-1.135,3.645-3.416,10.768-4.481 c-0.847-1.25-1.628-2.453-2.345-3.608C5.365,29.661,0,32.385,0,36.424c0,5.925,11.551,9.024,22.959,9.024s22.958-3.1,22.958-9.024 C45.917,32.385,40.553,29.661,33.523,28.334z"/> <path d="M22.96,36.047c1.032,0,2.003-0.491,2.613-1.325c3.905-5.33,10.813-15.508,10.813-20.827 c0-7.416-6.012-13.427-13.427-13.427c-7.417,0-13.427,6.011-13.427,13.427c0,5.318,6.906,15.497,10.812,20.827 C20.957,35.556,21.928,36.047,22.96,36.047z M17.374,13.63c0-3.084,2.5-5.584,5.585-5.584c3.084,0,5.584,2.5,5.584,5.584 s-2.5,5.584-5.584,5.584C19.874,19.215,17.374,16.715,17.374,13.63z"/> </g> </g> </g>
</svg>